<svg width="100" height="100" viewBox="0 0 100 100" fill="none" xmlns="http://www.w3.org/2000/svg">
<path d="M34.5061 24.9375H28.2257C28.0732 24.7237 27.8863 24.5368 27.6725 24.3844V14.7344C27.6725 14.3718 27.5285 14.024 27.2721 13.7676C27.0157 13.5112 26.668 13.3672 26.3054 13.3672C25.9428 13.3672 25.595 13.5112 25.3386 13.7676C25.0822 14.024 24.9382 14.3718 24.9382 14.7344V24.3844C24.6585 24.5829 24.4255 24.8401 24.2555 25.138C24.0854 25.4359 23.9824 25.7673 23.9536 26.1091C23.9248 26.4509 23.971 26.7948 24.0888 27.117C24.2067 27.4391 24.3934 27.7316 24.6359 27.9741C24.8784 28.2167 25.171 28.4034 25.4931 28.5212C25.8152 28.6391 26.1592 28.6852 26.501 28.6564C26.8427 28.6276 27.1741 28.5246 27.472 28.3546C27.7699 28.1845 28.0271 27.9516 28.2257 27.6719H34.5061C34.8687 27.6719 35.2165 27.5278 35.4729 27.2714C35.7293 27.015 35.8733 26.6673 35.8733 26.3047C35.8733 25.9421 35.7293 25.5943 35.4729 25.3379C35.2165 25.0815 34.8687 24.9375 34.5061 24.9375Z" fill="white"/>
<path d="M95.4985 67.7727C95.4195 67.4834 95.2476 67.2282 95.0093 67.0462C94.771 66.8643 94.4795 66.7657 94.1797 66.7656H89.4867C89.3123 66.3714 89.1266 65.9873 88.9297 65.6133L92.0446 62.5C92.2716 62.2734 92.4117 61.9741 92.4403 61.6546C92.4688 61.3351 92.3841 61.0157 92.2008 60.7524C90.3631 58.1211 87.9868 55.9108 85.2297 54.268C84.9684 54.113 84.663 54.0493 84.3615 54.0871C84.0601 54.1248 83.7798 54.2619 83.5649 54.4766L80.2836 57.7578C80.032 57.6537 79.7781 57.5563 79.5219 57.4656V52.9453C79.522 52.6331 79.4151 52.3302 79.2191 52.0871C79.0231 51.8441 78.7497 51.6755 78.4445 51.6094C75.3132 50.9359 72.0744 50.9359 68.943 51.6094C68.6378 51.6755 68.3644 51.8441 68.1684 52.0871C67.9724 52.3302 67.8655 52.6331 67.8656 52.9453V57.4656C67.6094 57.5563 67.3557 57.6537 67.1047 57.7578L63.8234 54.4766C63.6088 54.2614 63.3284 54.124 63.0269 54.0862C62.7253 54.0485 62.4197 54.1124 62.1586 54.268C59.4017 55.9108 57.0257 58.1212 55.1883 60.7524C55.0049 61.0156 54.92 61.335 54.9486 61.6546C54.9772 61.9742 55.1173 62.2735 55.3445 62.5L58.4594 65.6156C58.2625 65.9891 58.0768 66.3732 57.9023 66.768H53.2109C52.9111 66.768 52.6196 66.8666 52.3813 67.0486C52.143 67.2305 51.9712 67.4858 51.8922 67.775C51.3668 69.7046 51.1009 71.6955 51.1016 73.6953C51.1026 74.8938 51.1969 76.0904 51.3836 77.2742C51.4342 77.5962 51.5981 77.8894 51.8457 78.1013C52.0934 78.3131 52.4085 78.4296 52.7344 78.4297H57.1094C57.2904 79.0592 57.5063 79.6782 57.7563 80.2836L56.5297 81.5102C56.5016 81.5383 56.475 81.568 56.4516 81.5985L54.4773 83.5727C54.2625 83.7877 54.1254 84.0682 54.0877 84.3698C54.0501 84.6715 54.1141 84.9771 54.2695 85.2383C55.9146 87.9889 58.1222 90.361 60.7477 92.1992C61.0111 92.3831 61.3308 92.4682 61.6507 92.4396C61.9706 92.411 62.2702 92.2706 62.4969 92.043L65.6109 88.9297C66.3376 89.3156 67.0914 89.648 67.8664 89.9242V94.4438C67.8663 94.7559 67.973 95.0587 68.1689 95.3018C68.3647 95.5448 68.6379 95.7135 68.943 95.7797C72.0745 96.4568 75.3146 96.4568 78.4461 95.7797C78.7512 95.7135 79.0243 95.5448 79.2202 95.3018C79.4161 95.0587 79.5228 94.7559 79.5227 94.4438V89.9242C80.2977 89.648 81.0515 89.3156 81.7781 88.9297L84.8922 92.043C85.1188 92.2706 85.4184 92.411 85.7384 92.4396C86.0583 92.4682 86.378 92.3831 86.6414 92.1992C89.2669 90.361 91.4745 87.9889 93.1196 85.2383C93.2752 84.9771 93.3392 84.6715 93.3016 84.3698C93.2639 84.0681 93.1267 83.7876 92.9117 83.5727L90.9375 81.5992C90.9125 81.5688 90.8852 81.5391 90.8594 81.5102L89.6336 80.2844C89.8838 79.6788 90.0995 79.0596 90.2797 78.4297H94.6547C94.9806 78.4296 95.2957 78.3131 95.5434 78.1013C95.791 77.8894 95.9549 77.5962 96.0055 77.2742C96.1922 76.0904 96.2865 74.8938 96.2875 73.6953C96.2889 71.6948 96.0236 69.703 95.4985 67.7727ZM93.4539 75.6953H89.211C88.8984 75.6954 88.5953 75.8025 88.3521 75.9988C88.1089 76.1951 87.9403 76.4688 87.8742 76.7742C87.6324 77.8875 87.2609 78.9686 86.7672 79.9953C86.6447 80.2505 86.6044 80.5375 86.652 80.8165C86.6996 81.0956 86.8326 81.353 87.0328 81.5531L88.8414 83.3617C88.8672 83.3922 88.8946 83.4227 88.9235 83.4508L90.2055 84.7328C89.0446 86.4565 87.6232 87.9896 85.9922 89.2774L82.9742 86.2602C82.7575 86.0428 82.4739 85.9049 82.1691 85.8686C81.8643 85.8323 81.5562 85.8998 81.2945 86.0602C80.1984 86.7352 79.0158 87.2582 77.7789 87.6149C77.4932 87.6965 77.2418 87.869 77.0627 88.1062C76.8837 88.3434 76.7868 88.6325 76.7867 88.9297V93.311C74.737 93.6352 72.649 93.6352 70.5992 93.311V88.9297C70.5993 88.6326 70.5026 88.3435 70.3237 88.1063C70.1448 87.869 69.8935 87.6965 69.6078 87.6149C68.3709 87.2584 67.1882 86.7354 66.0922 86.0602C65.8303 85.8999 65.5221 85.8324 65.2173 85.8687C64.9124 85.905 64.6286 86.0429 64.4117 86.2602L61.3938 89.2774C59.7627 87.9896 58.3414 86.4565 57.1805 84.7328L58.4617 83.4508C58.4898 83.4227 58.5164 83.393 58.5398 83.3625L60.35 81.5531C60.5506 81.3543 60.6846 81.0983 60.7339 80.8202C60.7831 80.5421 60.7451 80.2556 60.625 80C60.1309 78.9732 59.7593 77.8918 59.518 76.7781C59.4525 76.4718 59.2839 76.1971 59.0404 76C58.7968 75.8029 58.493 75.6954 58.1797 75.6953H53.9367C53.8695 75.025 53.8359 74.3563 53.8359 73.6953C53.8356 72.285 53.9857 70.8786 54.2836 69.5H58.8203C59.0972 69.5002 59.3676 69.4162 59.5957 69.2593C59.8238 69.1023 59.9989 68.8798 60.0977 68.6211C60.4288 67.7425 60.8408 66.8964 61.3281 66.0938C61.4885 65.832 61.5561 65.5239 61.52 65.219C61.4838 64.9141 61.3461 64.6303 61.1289 64.4133L58.1109 61.3945C59.3995 59.7612 60.9355 58.3393 62.6633 57.1805L65.8359 60.3539C66.0369 60.5545 66.2952 60.6876 66.5751 60.7349C66.855 60.7822 67.1428 60.7414 67.3984 60.618C68.1097 60.2739 68.8494 59.9921 69.6094 59.7758C69.8951 59.6942 70.1465 59.5217 70.3256 59.2845C70.5046 59.0472 70.6015 58.7582 70.6016 58.461V54.0789C72.6515 53.757 74.7391 53.757 76.7891 54.0789V58.461C76.7892 58.7579 76.8859 59.0468 77.0646 59.284C77.2433 59.5211 77.4943 59.6938 77.7797 59.7758C78.5398 59.993 79.2795 60.2759 79.9906 60.6211C80.2463 60.7445 80.534 60.7853 80.814 60.738C81.0939 60.6907 81.3522 60.5576 81.5531 60.3571L84.7258 57.1836C86.4538 58.3422 87.9898 59.7641 89.2781 61.3977L86.2602 64.4164C86.043 64.6334 85.9053 64.9172 85.8691 65.2221C85.833 65.527 85.9006 65.8351 86.061 66.0969C86.5487 66.8985 86.9611 67.7435 87.293 68.6211C87.3919 68.8797 87.5669 69.1022 87.795 69.2592C88.0231 69.4161 88.2935 69.5001 88.5703 69.5H93.1071C93.4053 70.8785 93.5554 72.2849 93.5547 73.6953C93.5547 74.3563 93.5211 75.025 93.4539 75.6953Z" fill="white"/>
<path d="M73.6949 63.6797C71.7138 63.6795 69.7771 64.2669 68.1298 65.3674C66.4825 66.468 65.1986 68.0323 64.4403 69.8626C63.6821 71.6929 63.4837 73.7069 63.8702 75.65C64.2566 77.5931 65.2106 79.3779 66.6115 80.7788C68.0123 82.1796 69.7972 83.1336 71.7402 83.5201C73.6833 83.9065 75.6973 83.7081 77.5276 82.9499C79.3579 82.1917 80.9222 80.9077 82.0228 79.2604C83.1234 77.6131 83.7107 75.6764 83.7106 73.6953C83.7077 71.0399 82.6515 68.4941 80.7738 66.6164C78.8962 64.7387 76.3503 63.6826 73.6949 63.6797ZM73.6949 80.9773C72.2546 80.9775 70.8467 80.5505 69.649 79.7505C68.4514 78.9504 67.5179 77.8132 66.9666 76.4826C66.4154 75.152 66.2711 73.6878 66.5519 72.2751C66.8328 70.8625 67.5263 69.5649 68.5447 68.5464C69.5631 67.5279 70.8606 66.8343 72.2732 66.5533C73.6858 66.2722 75.15 66.4164 76.4807 66.9675C77.8113 67.5187 78.9487 68.452 79.7489 69.6496C80.5491 70.8471 80.9762 72.255 80.9762 73.6953C80.9743 75.6259 80.2066 77.4769 78.8415 78.8422C77.4765 80.2074 75.6255 80.9753 73.6949 80.9773Z" fill="white"/>
<path d="M42.2803 10.3289C42.2469 10.2985 42.212 10.2698 42.1756 10.2429C37.9532 6.05861 32.2491 3.71106 26.3045 3.71106C20.36 3.71106 14.6559 6.05861 10.4334 10.2429C10.397 10.2696 10.362 10.2983 10.3288 10.3289C10.2959 10.3617 10.2717 10.3984 10.2428 10.4336C6.05849 14.656 3.71094 20.3601 3.71094 26.3047C3.71094 32.2492 6.05849 37.9533 10.2428 42.1758C10.2717 42.2109 10.2959 42.2476 10.3288 42.2804C10.3616 42.3132 10.3991 42.3375 10.4334 42.3664C14.6557 46.5508 20.3596 48.8985 26.3041 48.8985C32.2486 48.8985 37.9526 46.5508 42.1748 42.3664C42.21 42.3375 42.2475 42.3132 42.2803 42.2804C42.3131 42.2476 42.3373 42.2101 42.3663 42.1758C46.5503 37.9533 48.8977 32.2494 48.8977 26.305C48.8977 20.3607 46.5503 14.6568 42.3663 10.4343C42.3381 10.3992 42.3131 10.3617 42.2803 10.3289ZM44.3413 27.6726H46.1116C45.8158 31.9859 44.1143 36.0833 41.2678 39.3375L40.0225 38.0929C39.7662 37.8366 39.4186 37.6926 39.0561 37.6926C38.6936 37.6926 38.346 37.8366 38.0897 38.0929C37.8334 38.3492 37.6894 38.6969 37.6894 39.0593C37.6894 39.4218 37.8334 39.7694 38.0897 40.0257L39.3342 41.2711C36.0801 44.1176 31.9827 45.819 27.6694 46.1148V44.3414C27.6694 43.9788 27.5253 43.631 27.2689 43.3746C27.0125 43.1182 26.6648 42.9742 26.3022 42.9742C25.9396 42.9742 25.5918 43.1182 25.3354 43.3746C25.079 43.631 24.935 43.9788 24.935 44.3414V46.1117C20.6216 45.8163 16.524 44.1148 13.2702 41.2679L14.5155 40.0226C14.7645 39.7647 14.9022 39.4193 14.899 39.0609C14.8958 38.7024 14.752 38.3595 14.4984 38.1061C14.2449 37.8526 13.902 37.7089 13.5435 37.7059C13.185 37.7028 12.8397 37.8407 12.5819 38.0898L11.3366 39.3351C8.48951 36.081 6.788 31.9832 6.49281 27.6695H8.26313C8.62573 27.6695 8.97348 27.5255 9.22987 27.2691C9.48627 27.0127 9.63031 26.6649 9.63031 26.3023C9.63031 25.9397 9.48627 25.592 9.22987 25.3356C8.97348 25.0792 8.62573 24.9351 8.26313 24.9351H6.4975C6.79269 20.6215 8.49419 16.5236 11.3413 13.2695L12.5866 14.5156C12.7135 14.6426 12.8643 14.7433 13.0301 14.812C13.196 14.8807 13.3738 14.9161 13.5534 14.9161C13.7329 14.9161 13.9107 14.8807 14.0766 14.812C14.2425 14.7433 14.3932 14.6426 14.5202 14.5156C14.6471 14.3886 14.7478 14.2379 14.8165 14.072C14.8853 13.9061 14.9206 13.7283 14.9206 13.5488C14.9206 13.3692 14.8853 13.1915 14.8165 13.0256C14.7478 12.8597 14.6471 12.709 14.5202 12.582L13.2741 11.3367C16.5282 8.48963 20.626 6.78813 24.9397 6.49294V8.26325C24.9397 8.62585 25.0837 8.9736 25.3401 9.23C25.5965 9.48639 25.9443 9.63044 26.3069 9.63044C26.6695 9.63044 27.0172 9.48639 27.2736 9.23C27.53 8.9736 27.6741 8.62585 27.6741 8.26325V6.49762C31.9877 6.79281 36.0856 8.49432 39.3397 11.3414L38.0944 12.5867C37.9638 12.7128 37.8596 12.8636 37.7879 13.0304C37.7162 13.1972 37.6785 13.3766 37.6768 13.5581C37.6752 13.7397 37.7098 13.9197 37.7785 14.0877C37.8472 14.2558 37.9487 14.4084 38.077 14.5368C38.2054 14.6652 38.358 14.7668 38.526 14.8356C38.694 14.9043 38.8741 14.939 39.0556 14.9374C39.2371 14.9359 39.4165 14.8982 39.5833 14.8266C39.7502 14.755 39.901 14.6508 40.0272 14.5203L41.2725 13.275C44.1194 16.5288 45.8209 20.6264 46.1162 24.9398H44.3413C43.9786 24.9398 43.6309 25.0839 43.3745 25.3403C43.1181 25.5966 42.9741 25.9444 42.9741 26.307C42.9741 26.6696 43.1181 27.0173 43.3745 27.2737C43.6309 27.5301 43.9786 27.6742 44.3413 27.6742V27.6726Z" fill="white"/>
<path d="M45.9195 74.2188C45.9367 74.1758 45.9469 74.1313 45.9602 74.0875C45.9734 74.0438 45.9883 74.0094 45.9969 73.9633C46.032 73.7869 46.032 73.6053 45.9969 73.4289C45.9883 73.3859 45.9719 73.3461 45.9602 73.3047C45.9484 73.2633 45.9367 73.2164 45.9195 73.1742C45.8963 73.1246 45.8702 73.0763 45.8414 73.0297C45.8242 73 45.8109 72.968 45.7914 72.9391C45.7413 72.8627 45.6834 72.7918 45.6187 72.7274L40.7687 67.8781C40.5124 67.6218 40.1648 67.4778 39.8023 67.4778C39.4399 67.4778 39.0922 67.6218 38.8359 67.8781C38.5796 68.1344 38.4356 68.4821 38.4356 68.8445C38.4356 69.207 38.5796 69.5546 38.8359 69.8109L41.3539 72.3289H27.6719V55.3438C27.6719 54.9811 27.5278 54.6334 27.2714 54.377C27.015 54.1206 26.6673 53.9766 26.3047 53.9766C25.9421 53.9766 25.5943 54.1206 25.3379 54.377C25.0815 54.6334 24.9375 54.9811 24.9375 55.3438V73.6953C24.9374 73.8749 24.9727 74.0527 25.0414 74.2186C25.11 74.3846 25.2107 74.5353 25.3377 74.6623C25.4647 74.7893 25.6154 74.89 25.7814 74.9586C25.9473 75.0273 26.1251 75.0626 26.3047 75.0625H41.3563L38.8383 77.5781C38.582 77.8344 38.438 78.1821 38.438 78.5445C38.438 78.907 38.582 79.2546 38.8383 79.5109C39.0946 79.7673 39.4422 79.9112 39.8047 79.9112C40.1672 79.9112 40.5148 79.7673 40.7711 79.5109L45.625 74.6641C45.6897 74.5996 45.7475 74.5287 45.7977 74.4524C45.8172 74.4234 45.8305 74.3914 45.8477 74.3609C45.8743 74.315 45.8983 74.2675 45.9195 74.2188Z" fill="white"/>
<path d="M54.0803 25.7813C54.0631 25.8242 54.0529 25.8695 54.0396 25.9141C54.0253 25.9543 54.013 25.9952 54.0029 26.0367C53.9678 26.2131 53.9678 26.3947 54.0029 26.5711C54.0115 26.6133 54.0271 26.6492 54.0396 26.6938C54.0521 26.7383 54.0631 26.7828 54.0803 26.8266C54.1038 26.8751 54.1299 26.9223 54.1584 26.968C54.1756 26.9992 54.1889 27.0313 54.2092 27.061C54.2593 27.1373 54.3172 27.2082 54.3818 27.2727L59.2311 32.1219C59.4889 32.371 59.8342 32.5089 60.1927 32.5058C60.5511 32.5028 60.8941 32.3591 61.1476 32.1056C61.4011 31.8522 61.545 31.5093 61.5482 31.1508C61.5514 30.7924 61.4136 30.447 61.1646 30.1891L58.6436 27.6719H72.3279V44.6563C72.3279 45.0189 72.472 45.3666 72.7284 45.623C72.9848 45.8794 73.3325 46.0235 73.6951 46.0235C74.0577 46.0235 74.4055 45.8794 74.6619 45.623C74.9183 45.3666 75.0623 45.0189 75.0623 44.6563V26.3047C75.0624 26.1251 75.0271 25.9473 74.9584 25.7814C74.8898 25.6155 74.7891 25.4647 74.6621 25.3377C74.5351 25.2108 74.3844 25.1101 74.2184 25.0414C74.0525 24.9727 73.8747 24.9374 73.6951 24.9375H58.6436L61.1615 22.4219C61.4105 22.164 61.5482 21.8186 61.5451 21.4601C61.5419 21.1017 61.398 20.7588 61.1445 20.5053C60.8909 20.2519 60.548 20.1082 60.1895 20.1052C59.8311 20.1021 59.4857 20.24 59.2279 20.4891L54.3787 25.336C54.314 25.4004 54.2562 25.4714 54.2061 25.5477C54.1876 25.5774 54.1709 25.6082 54.156 25.6399C54.1281 25.6855 54.1028 25.7327 54.0803 25.7813Z" fill="white"/>
</svg>
