<svg width="100" height="100" viewBox="0 0 100 100" fill="none" xmlns="http://www.w3.org/2000/svg">
<path d="M89.2969 65.9031L79.6875 64.3016V60.8078C82.5438 59.15 84.6797 56.3969 85.5266 53.1234H85.9375C89.3844 53.1234 92.1875 50.3203 92.1875 46.8734C92.1875 43.9984 90.2266 41.5953 87.5781 40.8703C90.3328 39.2359 92.1875 36.2406 92.1875 32.8125C92.1875 27.6422 87.9828 23.4375 82.8125 23.4375C81.0484 23.4375 79.4609 24.1781 78.3234 25.3578C76.375 24.1094 74.1328 23.4375 71.8125 23.4375H69.6969C65.7531 23.4375 62.0859 25.3437 59.8219 28.5547L58.5547 29.3984C56.1328 31.0125 54.6875 33.7141 54.6875 36.6234C54.6875 37.3297 54.775 38.0375 54.9469 38.7297L56.0281 43.0531C55.2016 44.1141 54.6875 45.4297 54.6875 46.875C54.6875 50.3219 57.4906 53.125 60.9375 53.125H61.3484C62.1953 56.3984 64.3313 59.15 67.1875 60.8094V64.3031L57.5781 65.9031C52.2812 66.7859 48.4375 71.3219 48.4375 76.6922V98.4375H98.4375V76.6922C98.4375 71.3219 94.5938 66.7859 89.2969 65.9031ZM68.0703 67.3234L71.4609 71.8453L68.3609 75.7203L67.5297 67.4125L68.0703 67.3234ZM73.1562 82.8125H73.7203L76.2203 95.3125H70.6563L73.1562 82.8125ZM73.9422 79.6875H72.9328L71.6844 76.5672L73.4375 74.375L75.1906 76.5656L73.9422 79.6875ZM75.4141 71.8438L78.8047 67.3219L79.3453 67.4125L78.5141 75.7203L75.4141 71.8438ZM89.0625 46.875C89.0625 48.5984 87.6609 50 85.9375 50V43.75C87.6609 43.75 89.0625 45.1516 89.0625 46.875ZM60.2875 31.9984L62.0641 30.8141L62.2375 30.5531C63.9031 28.0531 66.6922 26.5609 69.6953 26.5609H71.8109C73.5875 26.5609 75.3062 27.0812 76.7844 28.0656L76.7984 28.075C76.6609 28.5938 76.5625 29.1266 76.5625 29.6875C76.5625 33.1344 79.3656 35.9375 82.8125 35.9375H85.9375V32.8125H82.8125C81.0891 32.8125 79.6875 31.4109 79.6875 29.6875C79.6875 27.9641 81.0891 26.5625 82.8125 26.5625C86.2594 26.5625 89.0625 29.3656 89.0625 32.8125C89.0625 36.2594 86.2594 39.0625 82.8125 39.0625H65.625C64.7625 39.0625 64.0625 38.3609 64.0625 37.5C64.0625 36.6391 64.7625 35.9375 65.625 35.9375H67.1875V32.8125H65.625C63.0406 32.8125 60.9375 34.9156 60.9375 37.5V40.625C60.1641 40.625 59.4297 40.7844 58.7453 41.0422L57.9781 37.9734C57.8687 37.5312 57.8125 37.0766 57.8125 36.6234C57.8125 34.7609 58.7375 33.0312 60.2875 31.9984ZM57.8125 46.875C57.8125 45.1516 59.2141 43.75 60.9375 43.75V50C59.2141 50 57.8125 48.5984 57.8125 46.875ZM64.0625 50V41.9C64.5531 42.075 65.075 42.1875 65.625 42.1875H82.8125V50C82.8125 55.1703 78.6078 59.375 73.4375 59.375C68.2672 59.375 64.0625 55.1703 64.0625 50ZM73.4375 62.5C74.5187 62.5 75.5609 62.3484 76.5625 62.0891V65.1062L73.4375 69.2719L70.3125 65.1062V62.0891C71.3141 62.3484 72.3563 62.5 73.4375 62.5ZM51.5625 76.6922C51.5625 72.8578 54.3078 69.6156 58.0906 68.9844L64.4406 67.9266L66.0141 83.6547L69.4406 79.3719L70.2516 81.4L67.4688 95.3125H60.9375V78.125H57.8125V95.3125H51.5625V76.6922ZM95.3125 95.3125H89.0625V78.125H85.9375V95.3125H79.4062L76.6234 81.3984L77.4344 79.3703L80.8609 83.6531L82.4344 67.925L88.7844 68.9828C92.5672 69.6156 95.3125 72.8578 95.3125 76.6922V95.3125Z" fill="white"/>
<path d="M78.125 51.5625H75C75 52.425 74.3 53.125 73.4375 53.125C72.575 53.125 71.875 52.425 71.875 51.5625H68.75C68.75 54.1469 70.8531 56.25 73.4375 56.25C76.0219 56.25 78.125 54.1469 78.125 51.5625Z" fill="white"/>
<path d="M25 26.5625H21.875C14.1203 26.5625 7.8125 32.8719 7.8125 40.625V46.1375C7.8125 50.4672 6.78906 54.8031 4.85156 58.6766C2.70156 62.9813 1.5625 67.8 1.5625 72.6125V73.4375C1.5625 76.2047 2.775 78.6875 4.6875 80.4062V98.4375H39.0625V94.5078C39.0625 85.7687 35.725 77.5563 29.6875 71.275V67.1875H31.8469C32.7188 67.1875 33.5938 66.9813 34.375 66.5906C36.3016 65.6266 37.5 63.6891 37.5 61.5344V57.3766L42.1875 55.8141V54.6875C42.1875 50.1297 39.5125 41.7516 39.0469 40.3313C38.8891 32.7141 32.6547 26.5625 25 26.5625ZM4.6875 72.6125C4.6875 68.2828 5.71094 63.9469 7.64844 60.075C9.79844 55.7688 10.9375 50.95 10.9375 46.1375V40.625C10.9375 34.5938 15.8453 29.6875 21.875 29.6875H25C30.4984 29.6875 35.05 33.7703 35.8125 39.0625H25.225C22.5422 39.0625 20.2344 41.0656 19.8531 43.7203L18.9531 50.0266C16.2125 50.2937 14.0625 52.6141 14.0625 55.425C14.0625 57.4922 15.2109 59.3531 17.0625 60.2781L17.1875 60.3406V68.75V71.875V73.4375C17.1875 76.8844 14.3844 79.6875 10.9375 79.6875C7.49062 79.6875 4.6875 76.8844 4.6875 73.4375V72.6125ZM7.8125 92.1875H17.1875V95.3125H7.8125V92.1875ZM35.9375 95.3125H20.3125V82.8125H17.1875V89.0625H7.8125V82.2656C8.79219 82.6125 9.84062 82.8125 10.9375 82.8125C16.1078 82.8125 20.3125 78.6078 20.3125 73.4375H27.4688C32.9344 79.1328 35.9375 86.5906 35.9375 94.5078V95.3125ZM34.375 55.1234V61.5344C34.375 62.4984 33.8391 63.3656 32.9766 63.7953C32.6281 63.9703 32.2375 64.0625 31.8469 64.0625H23.4375V67.1875H26.5625V70.3125H20.3125V68.75V58.4094L18.4578 57.4828C17.675 57.0906 17.1875 56.3016 17.1875 55.425C17.1875 54.1562 18.2188 53.125 19.4875 53.125H21.6688L22.95 44.1625C23.1094 43.0359 24.0891 42.1875 25.2266 42.1875H36.3609C37.0781 44.4828 38.6984 49.9672 39.0109 53.5781L34.375 55.1234Z" fill="white"/>
<path d="M31.25 50C32.1129 50 32.8125 49.3004 32.8125 48.4375C32.8125 47.5746 32.1129 46.875 31.25 46.875C30.3871 46.875 29.6875 47.5746 29.6875 48.4375C29.6875 49.3004 30.3871 50 31.25 50Z" fill="white"/>
<path d="M32.8125 7.8125H54.6875V10.9375H32.8125V7.8125Z" fill="white"/>
<path d="M32.8125 14.0625H48.4375V17.1875H32.8125V14.0625Z" fill="white"/>
<path d="M51.5625 14.0625H54.6875V17.1875H51.5625V14.0625Z" fill="white"/>
<path d="M54.6875 25.9156V23.4375H54.9469C58.25 23.4375 60.9375 20.75 60.9375 17.4469V7.8125C60.9375 4.36562 58.1344 1.5625 54.6875 1.5625H32.8125C29.3656 1.5625 26.5625 4.36562 26.5625 7.8125V17.4469C26.5625 20.75 29.25 23.4375 32.5531 23.4375H43.1031L48.2469 28.5812C48.9484 29.2844 49.9203 29.6875 50.9156 29.6875C52.9953 29.6875 54.6875 27.9953 54.6875 25.9156ZM50.4578 26.3734L44.3969 20.3125H32.5531C30.9719 20.3125 29.6875 19.0266 29.6875 17.4469V7.8125C29.6875 6.08906 31.0891 4.6875 32.8125 4.6875H54.6875C56.4109 4.6875 57.8125 6.08906 57.8125 7.8125V17.4469C57.8125 19.0266 56.5281 20.3125 54.9469 20.3125H51.5625V25.9156C51.5625 26.4422 50.8297 26.7469 50.4578 26.3734Z" fill="white"/>
</svg>
