<svg width="100" height="100" viewBox="0 0 100 100" fill="none" xmlns="http://www.w3.org/2000/svg">
<g clip-path="url(#clip0)">
<path d="M86.2793 73.3333C86.8086 70.5234 86.7951 67.6381 86.2393 64.8333L93.8726 46.4117C93.8734 46.3995 93.8734 46.3872 93.8726 46.375C95.1096 42.9884 96.9224 39.841 99.231 37.0717C99.8054 36.4649 100.036 35.6102 99.846 34.7967L96.716 21.28C96.6787 21.1387 96.6227 21.003 96.5493 20.8767C96.536 20.8517 96.531 20.8217 96.5176 20.7983C96.5043 20.775 96.446 20.7183 96.4126 20.675C96.3444 20.5751 96.2656 20.4829 96.1776 20.4C96.1197 20.3592 96.059 20.3225 95.996 20.29C95.9147 20.2302 95.8282 20.1777 95.7376 20.1333C95.612 20.0859 95.481 20.054 95.3476 20.0383C95.3093 20.0383 95.276 20.0133 95.2376 20.01C94.9182 19.9887 94.5994 20.0599 94.3193 20.215C94.2943 20.2283 94.2643 20.2333 94.2393 20.2483H94.2226L82.4543 27.5933C81.7416 28.0347 81.2993 28.8053 81.2776 29.6433C80.9507 33.2419 80.0028 36.7567 78.476 40.0317V40.05L74.661 49.2717C72.7885 48.2763 70.784 47.5524 68.7076 47.1217C69.4936 41.6965 69.7826 36.211 69.571 30.7333C72.6735 27.0109 74.1625 22.2044 73.7076 17.38C72.666 7.66666 63.8876 0.651661 63.5126 0.356661C62.949 -0.0871853 62.1646 -0.120565 61.5653 0.273794C60.966 0.668153 60.6863 1.40176 60.871 2.09499C61.7293 5.31833 60.986 8.71999 54.646 15.715C51.7975 18.4655 50.8946 22.6652 52.361 26.3433C52.9216 27.7502 53.7249 29.0476 54.7343 30.1767C54.331 32.7517 54.0143 35.19 53.796 37.565C53.42 41.4932 53.3231 45.4431 53.506 49.385C52.0191 50.1911 50.6271 51.161 49.356 52.2767L41.2726 17.71C41.2726 17.675 41.2393 17.65 41.2293 17.6183C41.2022 17.5072 41.1631 17.3993 41.1126 17.2967L32.856 2.04833C32.0297 0.522116 30.284 -0.262158 28.5942 0.133611C26.9044 0.529381 25.6886 2.00725 25.626 3.74166L24.9993 21.0667C24.9997 21.1917 25.0137 21.3163 25.041 21.4383C25.041 21.465 25.041 21.4883 25.041 21.5133L33.2876 56.7083C31.9867 56.7658 30.6953 56.9585 29.4343 57.2833L20.3626 35.375C19.6352 33.7002 17.7059 32.91 16.0126 33.5933L2.14764 39.3333C0.450748 40.0416 -0.355662 41.9873 0.342636 43.6883L12.646 73.3683C5.43515 73.7469 -0.162076 79.8001 0.0240409 87.0185C0.210158 94.2368 6.11189 99.9935 13.3326 100H86.666C91.4295 99.9309 95.7944 97.3258 98.1163 93.1659C100.438 89.006 100.365 83.9234 97.923 79.8326C95.4814 75.7418 91.0428 73.2643 86.2793 73.3333ZM84.581 30.1933L91.5676 25.8333L89.0943 31.8067C88.7418 32.6572 89.1455 33.6325 89.996 33.985C90.8465 34.3375 91.8218 33.9338 92.1743 33.0833L94.6476 27.11L96.4993 35.1317C94.5182 37.5486 92.8908 40.2349 91.666 43.11C89.9283 43.9155 87.933 43.9573 86.1631 43.2253C84.3933 42.4933 83.0103 41.0542 82.3493 39.2567C83.5198 36.3569 84.2713 33.3051 84.581 30.1933ZM80.7476 43.2783C81.8502 44.6264 83.2811 45.6681 84.9026 46.3033C86.1916 46.8577 87.5779 47.1501 88.981 47.1633C89.3185 47.1621 89.6558 47.1415 89.991 47.1017L84.6726 59.935C83.0801 56.4238 80.6166 53.378 77.516 51.0867L80.7476 43.2783ZM57.9143 31.375L66.2876 31.8867C66.3393 33.4433 66.321 35.0533 66.2693 36.6883C63.4798 36.8876 60.6766 36.7522 57.9193 36.285C57.7093 36.255 57.5043 36.2317 57.296 36.2033C57.4626 34.6333 57.666 33.0433 57.911 31.375H57.9143ZM57.1193 17.9533C61.5443 13.0717 63.8376 9.31666 64.371 5.78666C67.5517 9.05924 69.6512 13.2293 70.386 17.7333C70.736 21.6543 69.5237 25.5549 67.0126 28.5867C63.7204 28.3867 60.4643 28.1867 57.2443 27.9867C55.8607 26.6932 55.0648 24.8912 55.0406 22.9974C55.0163 21.1035 55.7659 19.2817 57.116 17.9533H57.1193ZM56.9926 39.525L57.476 39.5883C59.6236 39.9205 61.7915 40.1048 63.9643 40.14C64.6543 40.14 65.381 40.085 66.1093 40.0283C65.9576 42.1733 65.7093 44.4133 65.3943 46.7283C64.9826 46.7067 64.5793 46.6667 64.166 46.6667C61.6497 46.6712 59.1522 47.1011 56.7793 47.9383C56.7024 45.1321 56.7725 42.3239 56.9893 39.525H56.9926ZM44.101 59.015L39.3326 38.7033C39.1097 37.8221 38.2218 37.282 37.3368 37.4893C36.4518 37.6966 35.8961 38.5748 36.0876 39.4633L40.3726 57.745C39.1945 57.3237 37.9774 57.0205 36.7393 56.84L29.4243 25.6233C30.449 26.0899 31.5617 26.332 32.6876 26.3333C32.7926 26.3333 32.9043 26.3183 33.011 26.3133L34.1893 31.345C34.3163 31.9339 34.7512 32.4085 35.3269 32.5862C35.9026 32.764 36.5293 32.6172 36.9662 32.2023C37.4031 31.7874 37.5821 31.1691 37.4343 30.585L36.2543 25.55C37.3851 25.0494 38.3825 24.2901 39.166 23.3333L46.6026 55.1317C45.6369 56.3363 44.7985 57.6376 44.101 59.015ZM33.9176 22.8483C31.7861 23.2617 29.6098 22.3903 28.3526 20.62L28.5643 14.75C29.1442 14.8583 29.7327 14.9141 30.3226 14.9167C30.8924 14.9191 31.4606 14.8559 32.016 14.7283C33.1403 14.4331 34.192 13.91 35.106 13.1917L37.9126 18.3717C37.5782 20.5209 36.0147 22.2743 33.9176 22.8517V22.8483ZM29.3526 3.37833C29.5797 3.32574 29.814 3.43063 29.926 3.63499L33.4993 10.2433C32.8547 10.8265 32.085 11.2541 31.2493 11.4933C30.3952 11.6501 29.5165 11.6085 28.681 11.3717L28.9526 3.86166C28.9617 3.62877 29.1256 3.43078 29.3526 3.37833ZM17.291 36.6667L18.5643 39.7433L12.3976 42.2967C11.6666 42.6037 11.253 43.3832 11.4087 44.1607C11.5645 44.9381 12.2464 45.4983 13.0393 45.5C13.2583 45.4995 13.4751 45.4565 13.6776 45.3733L19.8443 42.8183L21.1193 45.8983L18.0343 47.1767C17.299 47.4809 16.8814 48.2625 17.0372 49.0429C17.1929 49.8232 17.8786 50.3846 18.6743 50.3833C18.8927 50.3826 19.1089 50.3395 19.311 50.2567L22.396 48.9783L23.671 52.0583L17.4993 54.6167C16.764 54.9209 16.3464 55.7025 16.5022 56.4829C16.6579 57.2632 17.3436 57.8246 18.1393 57.8233C18.3577 57.8227 18.5739 57.7797 18.776 57.6967L24.9426 55.1433L26.291 58.3983C20.86 60.8773 16.8775 65.7246 15.4993 71.5333L3.4193 42.4067L17.291 36.6667ZM86.666 96.6667H13.3326C7.80979 96.6667 3.33264 92.1895 3.33264 86.6667C3.33264 81.1438 7.80979 76.6667 13.3326 76.6667C14.2983 76.6635 15.2592 76.8027 16.1843 77.08C16.684 77.231 17.2256 77.139 17.6476 76.8317C18.0695 76.5243 18.3231 76.0369 18.3326 75.515C18.4512 69.5751 21.885 64.2015 27.2254 61.5984C32.5658 58.9953 38.914 59.6008 43.666 63.1667C44.0859 63.4792 44.6283 63.5763 45.1305 63.4289C45.6328 63.2814 46.0366 62.9066 46.221 62.4167C49.4771 53.7386 58.4766 48.6341 67.5958 50.2927C76.715 51.9513 83.3407 59.8979 83.3326 69.1667C83.3359 71.0727 83.0521 72.9684 82.491 74.79C82.3158 75.3567 82.4551 75.9739 82.8566 76.4105C83.2582 76.8471 83.8616 77.0373 84.441 76.91C85.1717 76.7492 85.9177 76.6676 86.666 76.6667C92.1888 76.6667 96.666 81.1438 96.666 86.6667C96.666 92.1895 92.1888 96.6667 86.666 96.6667Z" fill="white"/>
<path d="M64.475 26.1667C64.9982 26.1686 65.4919 25.9249 65.8084 25.5083C67.8891 22.6921 68.6932 19.1322 68.025 15.695C67.8829 15.1073 67.4336 14.6427 66.851 14.4809C66.2683 14.3191 65.6438 14.4856 65.219 14.9159C64.7942 15.3462 64.6358 15.9728 64.805 16.5533C65.2041 18.9957 64.6086 21.4962 63.1517 23.4967C62.7729 24.0017 62.712 24.6774 62.9943 25.242C63.2766 25.8067 63.8538 26.1633 64.485 26.1633L64.475 26.1667Z" fill="white"/>
<path d="M62.2831 76.6667C61.0438 76.6705 59.8214 76.9554 58.7081 77.5C55.7099 73.3974 50.1116 72.1955 45.6937 74.706C41.2758 77.2166 39.4431 82.6411 41.4331 87.3167C41.695 87.9312 42.2985 88.33 42.9664 88.33C43.191 88.3305 43.4134 88.2851 43.6198 88.1967C44.0265 88.0234 44.3476 87.6957 44.5127 87.2856C44.6777 86.8755 44.6731 86.4166 44.4998 86.01C44.137 85.1643 43.9498 84.2536 43.9498 83.3333C43.9498 79.6514 46.9346 76.6667 50.6165 76.6667C53.2023 76.6538 55.5575 78.1522 56.6415 80.5C56.6775 80.5543 56.7164 80.6066 56.7581 80.6567C56.7844 80.7138 56.8139 80.7694 56.8465 80.8233C56.8765 80.86 56.9198 80.8767 56.9531 80.9117C57.0313 80.9928 57.1179 81.0655 57.2114 81.1283C57.2947 81.1924 57.384 81.2482 57.4781 81.295C57.5749 81.3356 57.6754 81.3668 57.7781 81.3883C57.8806 81.4152 57.9856 81.4314 58.0914 81.4367C58.308 81.4349 58.5229 81.3989 58.7281 81.33C58.7725 81.3218 58.8165 81.3112 58.8598 81.2983C58.9139 81.2634 58.9656 81.2249 59.0148 81.1833C59.0748 81.1567 59.1332 81.1266 59.1898 81.0933C60.0652 80.3853 61.1572 79.9994 62.2831 80C64.2319 80.0032 66.0012 81.1383 66.8165 82.9083C67.1984 83.7459 68.1872 84.1153 69.0248 83.7333C69.8624 83.3513 70.2318 82.3626 69.8498 81.525C68.4926 78.5669 65.5376 76.6696 62.2831 76.6667Z" fill="white"/>
<path d="M29.472 65.085C29.2204 65.1667 23.332 67.2034 23.332 73.3334C23.332 74.2538 24.0782 75 24.9987 75C25.9192 75 26.6654 74.2538 26.6654 73.3334C26.8014 71.0084 28.3312 68.997 30.5354 68.245C31.4098 67.9514 31.8807 67.0045 31.587 66.13C31.2934 65.2556 30.3465 64.7847 29.472 65.0784V65.085Z" fill="white"/>
<path d="M52.928 63.2833C53.0604 63.3169 53.1965 63.3337 53.333 63.3333C54.0969 63.3325 54.7624 62.8126 54.948 62.0716C55.7151 58.9594 58.4703 56.7456 61.6747 56.6667C62.5952 56.6643 63.3395 55.9163 63.3372 54.9958C63.3349 54.0753 62.5868 53.331 61.6664 53.3333C56.9292 53.3962 52.8355 56.6581 51.7164 61.2616C51.4927 62.1545 52.0352 63.0596 52.928 63.2833Z" fill="white"/>
</g>
<defs>
<clipPath id="clip0">
<rect width="100" height="100" fill="white"/>
</clipPath>
</defs>
</svg>
