<svg width="840" height="588" viewBox="0 0 840 588" fill="none" xmlns="http://www.w3.org/2000/svg">
<path d="M126.276 587.972V112.94L126.277 0H328.683V112.94H243.951V587.972H126.276Z" fill="#FFDB01"/>
<path d="M407.692 587.972L344.75 0H459.688L492.527 370.99L525.366 0H634.83L666.301 370.99L697.772 0H814.078L749.768 587.972H608.833L579.414 304.595L551.364 587.972H407.692Z" fill="#FFDB01"/>
<path d="M407.692 587.972L344.75 0H459.688L492.527 370.99L525.366 0H634.83L666.301 370.99L697.772 0H814.078L749.768 587.972H608.833L579.414 304.595L551.364 587.972H407.692Z" fill="#FFDB01"/>
<path d="M839.761 24.2923L813.91 0.0175781L802.388 92.1863L769.375 396.775L749.443 581.148V588L783.702 562.462L839.761 24.2923Z" fill="white"/>
<path d="M577.075 565.025L551.401 587.971L577.528 304.589H580.642L586.248 363.139L589.098 384.94L577.075 565.025Z" fill="white"/>
<path d="M486.244 27.5975L459.304 0.0175781L490.324 371.237H494.062L505.803 233.58L486.244 27.5975Z" fill="white"/>
<path d="M661.041 27.5975L634.728 0.0175781L664.108 368.123L664.731 371.237H668.468L667.845 369.368L679.949 226.729L661.041 27.5975Z" fill="white"/>
<path d="M407.691 587.972L344.75 0H459.687L492.526 370.99L525.366 0H634.83L666.301 370.99L697.772 0H814.078L749.768 587.972H608.832L579.414 304.595L551.363 587.972H407.691Z" fill="#FFDB01"/>
<ellipse cx="57.1259" cy="56.4314" rx="56.3862" ry="56.4135" fill="white"/>
</svg>
