<svg width="17" height="30" viewBox="0 0 17 30" fill="none" xmlns="http://www.w3.org/2000/svg">
<g clip-path="url(#clip0)">
<mask id="path-2-inside-1" fill="white">
<path d="M0 8.5C0 3.80558 3.80558 0 8.5 0C13.1944 0 17 3.80558 17 8.5V21.5C17 26.1944 13.1944 30 8.5 30C3.80558 30 0 26.1944 0 21.5V8.5Z"/>
</mask>
<path d="M9 6C9 5.72386 8.77614 5.5 8.5 5.5C8.22386 5.5 8 5.72386 8 6H9ZM8 12C8 12.2761 8.22386 12.5 8.5 12.5C8.77614 12.5 9 12.2761 9 12H8ZM8 6V12H9V6H8ZM16 8.5V21.5H18V8.5H16ZM1 21.5V8.5H-1V21.5H1ZM8.5 29C4.35786 29 1 25.6421 1 21.5H-1C-1 26.7467 3.25329 31 8.5 31V29ZM16 21.5C16 25.6421 12.6421 29 8.5 29V31C13.7467 31 18 26.7467 18 21.5H16ZM8.5 1C12.6421 1 16 4.35786 16 8.5H18C18 3.25329 13.7467 -1 8.5 -1V1ZM8.5 -1C3.25329 -1 -1 3.2533 -1 8.5H1C1 4.35787 4.35786 1 8.5 1V-1Z" fill="white" mask="url(#path-2-inside-1)"/>
</g>
<defs>
<clipPath id="clip0">
<rect width="16.8" height="30" fill="white"/>
</clipPath>
</defs>
</svg>
