<?xml version="1.0" standalone="no"?>
<!DOCTYPE svg PUBLIC "-//W3C//DTD SVG 20010904//EN"
 "http://www.w3.org/TR/2001/REC-SVG-20010904/DTD/svg10.dtd">
<svg version="1.0" xmlns="http://www.w3.org/2000/svg"
 width="512.000000pt" height="512.000000pt" viewBox="0 0 512.000000 512.000000"
 preserveAspectRatio="xMidYMid meet">
<metadata>
Created by potrace 1.11, written by Peter Selinger 2001-2013
</metadata>
<g transform="translate(0.000000,512.000000) scale(0.100000,-0.100000)"
fill="#000000" stroke="none">
<path d="M855 3881 c-142 -37 -227 -190 -181 -327 48 -146 212 -216 351 -150
187 88 196 351 15 450 -54 29 -133 41 -185 27z"/>
<path d="M1230 2560 l0 -1330 265 0 265 0 0 1075 0 1075 190 0 190 0 0 255 0
255 -455 0 -455 0 0 -1330z"/>
<path d="M2240 3864 c0 -16 271 -2543 276 -2576 l6 -38 304 0 c167 0 304 1
304 3 1 1 29 283 63 627 62 616 63 625 85 628 13 2 22 -2 22 -10 0 -21 120
-1179 126 -1215 l5 -33 299 0 c165 0 300 4 300 8 0 4 63 584 140 1287 77 704
140 1290 140 1303 l0 22 -240 0 c-132 0 -240 -3 -240 -6 0 -14 -130 -1545
-136 -1596 -5 -47 -9 -58 -24 -58 -15 0 -20 10 -25 53 -6 54 -135 1577 -135
1596 0 8 -71 11 -229 11 l-228 0 -5 -47 c-3 -27 -37 -400 -74 -830 l-69 -783
-22 0 c-17 0 -23 6 -23 23 0 12 -31 377 -70 811 -38 433 -70 796 -70 807 0 18
-10 19 -240 19 -132 0 -240 -3 -240 -6z"/>
</g>
</svg>
