<svg width="25" height="25" viewBox="0 0 25 25" fill="none" xmlns="http://www.w3.org/2000/svg">
<g clip-path="url(#clip0)">
<path d="M18.75 0H6.25C2.80371 0 0 2.80371 0 6.25V18.75C0 22.1963 2.80371 25 6.25 25H9.8467C10.1723 25 10.4363 24.736 10.4363 24.4104C10.4363 24.0847 10.1723 23.8208 9.8467 23.8208H6.25C3.45401 23.8208 1.17925 21.546 1.17925 18.75V6.25C1.17925 3.45401 3.45401 1.17925 6.25 1.17925H18.75C21.546 1.17925 23.8208 3.45401 23.8208 6.25V18.75C23.8208 21.546 21.546 23.8208 18.75 23.8208H15.1926C14.867 23.8208 14.603 24.0847 14.603 24.4104C14.603 24.736 14.867 25 15.1926 25H18.75C22.1963 25 25 22.1963 25 18.75V6.25C25 2.80371 22.1963 0 18.75 0Z" fill="black"/>
<path d="M12.9166 23.9936C12.807 23.8839 12.6548 23.8208 12.4998 23.8208C12.3447 23.8208 12.1926 23.8839 12.0829 23.9936C11.9732 24.1032 11.9102 24.2554 11.9102 24.4104C11.9102 24.5655 11.9732 24.7176 12.0829 24.8273C12.1926 24.937 12.3447 25 12.4998 25C12.6548 25 12.807 24.937 12.9166 24.8273C13.0263 24.7176 13.0894 24.5655 13.0894 24.4104C13.0894 24.2554 13.0263 24.1032 12.9166 23.9936Z" fill="black"/>
<path d="M8.58571 7.60316C8.40128 7.40638 8.09235 7.39632 7.89552 7.58065L7.87389 7.60101C7.67775 7.78607 7.66876 8.09511 7.85387 8.29125C7.94992 8.39306 8.07936 8.44443 8.2091 8.44443C8.32931 8.44443 8.44977 8.40029 8.54411 8.31127L8.5632 8.29335C8.75998 8.10897 8.77009 7.79994 8.58571 7.60316Z" fill="black"/>
<path d="M12.5 5.76172C11.4275 5.76172 10.3602 6.02007 9.41323 6.50884C9.17363 6.63252 9.07964 6.92705 9.20332 7.1667C9.32705 7.4063 9.62158 7.50024 9.86118 7.37661C10.6817 6.95303 11.5696 6.73828 12.5 6.73828C15.677 6.73828 18.2617 9.323 18.2617 12.5C18.2617 15.677 15.677 18.2617 12.5 18.2617C9.323 18.2617 6.73828 15.677 6.73828 12.5C6.73828 11.503 6.99683 10.5207 7.48599 9.65928C7.61914 9.4248 7.53701 9.12676 7.30249 8.99355C7.06797 8.86045 6.76997 8.94253 6.63677 9.17705C6.06431 10.1852 5.76172 11.3342 5.76172 12.5C5.76172 16.2155 8.78452 19.2383 12.5 19.2383C16.2155 19.2383 19.2383 16.2155 19.2383 12.5C19.2383 8.78452 16.2155 5.76172 12.5 5.76172Z" fill="black"/>
<path d="M18.9082 4.23584C17.8851 4.23584 17.0527 5.06821 17.0527 6.09131C17.0527 7.1144 17.8851 7.94678 18.9082 7.94678C19.9313 7.94678 20.7637 7.1144 20.7637 6.09131C20.7637 5.06821 19.9313 4.23584 18.9082 4.23584ZM18.9082 6.97021C18.4236 6.97021 18.0293 6.57593 18.0293 6.09131C18.0293 5.60669 18.4236 5.2124 18.9082 5.2124C19.3928 5.2124 19.7871 5.60669 19.7871 6.09131C19.7871 6.57593 19.3928 6.97021 18.9082 6.97021Z" fill="black"/>
</g>
<defs>
<clipPath id="clip0">
<rect width="25" height="25" fill="white"/>
</clipPath>
</defs>
</svg>
