<svg width="25" height="25" viewBox="0 0 25 25" fill="none" xmlns="http://www.w3.org/2000/svg">
<path d="M6.71313 4.05176H6.70703C6.43735 4.05176 6.21875 4.27036 6.21875 4.54004C6.21875 4.80972 6.43735 5.02832 6.70703 5.02832H6.71313C6.98281 5.02832 7.20142 4.80972 7.20142 4.54004C7.20142 4.27036 6.98281 4.05176 6.71313 4.05176Z" fill="black"/>
<path d="M23.0469 4.05176H8.89004C8.62036 4.05176 8.40176 4.27036 8.40176 4.54004C8.40176 4.80972 8.62036 5.02832 8.89004 5.02832H23.0469C23.0722 5.02832 23.097 5.03022 23.1218 5.03213L21.7574 6.39653H15.3882C15.1185 6.39653 14.8999 6.61514 14.8999 6.88481C14.8999 7.15449 15.1185 7.3731 15.3882 7.3731H20.7809L13.9748 14.1792C13.1616 14.9924 11.8384 14.9924 11.0252 14.1792L1.87817 5.03213C1.90298 5.03022 1.92783 5.02832 1.95312 5.02832H4.54102C4.81069 5.02832 5.0293 4.80972 5.0293 4.54004C5.0293 4.27036 4.81069 4.05176 4.54102 4.05176H1.95312C0.876172 4.05176 0 4.92793 0 6.00488V18.9952C0 20.0722 0.876172 20.9483 1.95312 20.9483H23.0469C24.1238 20.9483 25 20.0722 25 18.9952V6.00488C25 4.92793 24.1238 4.05176 23.0469 4.05176ZM0.976562 18.9952V6.00488C0.976562 5.8605 1.00889 5.72383 1.06538 5.60039L7.86138 12.3964L1.01069 19.2471C0.98916 19.1666 0.976562 19.0824 0.976562 18.9952ZM23.0469 19.9718H1.95312C1.86592 19.9718 1.78179 19.9592 1.70127 19.9376L8.55195 13.087L10.3348 14.8698C10.9317 15.4667 11.7158 15.7652 12.5 15.7652C13.2842 15.7652 14.0683 15.4667 14.6653 14.8698L16.448 13.087L23.2987 19.9376C23.2182 19.9592 23.1341 19.9718 23.0469 19.9718ZM24.0234 18.9952C24.0234 19.0824 24.0108 19.1666 23.9893 19.2471L17.1386 12.3964L23.9346 5.60039C23.9911 5.72383 24.0234 5.8605 24.0234 6.00488V18.9952Z" fill="black"/>
<path d="M13.3452 6.39648H13.3379C13.0682 6.39648 12.8496 6.61509 12.8496 6.88477C12.8496 7.15444 13.0682 7.37305 13.3379 7.37305H13.3452C13.6149 7.37305 13.8335 7.15444 13.8335 6.88477C13.8335 6.61509 13.6149 6.39648 13.3452 6.39648Z" fill="black"/>
</svg>
