<svg width="25" height="25" viewBox="0 0 25 25" fill="none" xmlns="http://www.w3.org/2000/svg">
<g clip-path="url(#clip0)">
<path d="M11.3499 19.0587C11.1594 19.2491 11.1594 19.5583 11.3499 19.749C11.5409 19.9395 11.8499 19.9395 12.0402 19.749C12.2311 19.5583 12.2311 19.2491 12.0402 19.0587C11.8499 18.8678 11.5409 18.8678 11.3499 19.0587Z" fill="black"/>
<path d="M23.8729 18.2108L20.1658 15.0585C20.1486 15.044 20.1305 15.0307 20.1116 15.0187C19.139 14.3995 17.8903 14.5367 17.0749 15.3519L15.0537 17.3729C14.9137 17.5131 14.7048 17.5545 14.5217 17.4789C12.2394 16.5348 10.3645 15.1135 8.94904 13.2547C7.86967 11.8374 7.48057 10.7111 7.42927 10.5524C7.42316 10.5185 7.41343 10.4847 7.3997 10.4517C7.32398 10.2686 7.36537 10.0601 7.50575 9.92013L9.52678 7.89853C10.3422 7.08314 10.4791 5.83439 9.85999 4.86184C9.85503 4.85402 9.84988 4.84639 9.84454 4.83876L7.16739 1.11848C6.3251 -0.188249 4.49042 -0.38566 3.38931 0.715262L2.98457 1.12C2.98438 1.12038 2.984 1.12076 2.98362 1.12095L1.53861 2.56596C-0.184487 4.28925 -0.466393 6.87867 0.723602 10.0548C1.74289 12.7754 3.78337 15.753 6.46911 18.4387C9.21836 21.188 12.2764 23.2662 15.0798 24.2907C17.8546 25.3044 20.8063 25.4293 22.8954 23.34L24.2582 21.9774C25.3543 20.8811 25.163 19.0584 23.8729 18.2108ZM19.5608 15.8257L23.2646 18.9753C23.2816 18.9898 23.2997 19.0031 23.3186 19.0151C24.1098 19.5189 24.2296 20.6251 23.5675 21.287L23.4664 21.3882L17.1491 16.6584L17.7654 16.0423C18.247 15.5605 18.9809 15.4734 19.5608 15.8257ZM6.35161 1.65501C6.35657 1.66283 6.36172 1.67065 6.36706 1.67809L9.04307 5.39704C9.40661 5.97897 9.3225 6.72188 8.83632 7.20807L8.23913 7.80545L3.96514 1.52035L4.07977 1.40572C4.74448 0.741011 5.84979 0.866705 6.35161 1.65501ZM15.4148 23.3734C12.7422 22.3969 9.8104 20.3991 7.15957 17.7483C4.57015 15.159 2.60921 12.3051 1.63779 9.71222C0.908615 7.76597 0.41938 5.06611 2.22907 3.25661L3.26228 2.22321L7.53627 8.50831L6.81548 9.22947C6.4054 9.63879 6.27646 10.2446 6.48112 10.784C6.63524 11.4164 7.34439 12.7293 8.05984 13.6967C9.11269 15.1203 11.0237 17.0885 14.1485 18.3813C14.6976 18.6085 15.3238 18.4837 15.7442 18.0635L16.4516 17.3559L22.7689 22.0858L22.2049 22.6496C20.265 24.5897 17.4417 24.114 15.4148 23.3734Z" fill="black"/>
<path d="M10.4364 17.8929C9.92067 17.4407 9.02861 16.6629 8.55883 16.1795C7.40679 14.9957 6.1981 13.5606 5.47942 12.5237C5.32587 12.3021 5.02165 12.2468 4.80002 12.4005C4.57839 12.5541 4.52326 12.8583 4.67681 13.0799C5.58318 14.3876 6.91488 15.8902 7.85883 16.8603C8.35474 17.3707 9.25444 18.1554 9.7925 18.627C9.99487 18.8044 10.3033 18.785 10.4816 18.5818C10.6594 18.3793 10.6392 18.0707 10.4364 17.8929Z" fill="black"/>
</g>
<defs>
<clipPath id="clip0">
<rect width="25" height="25" fill="white"/>
</clipPath>
</defs>
</svg>
