<svg width="25" height="25" viewBox="0 0 25 25" fill="none" xmlns="http://www.w3.org/2000/svg">
<g clip-path="url(#clip0)">
<path d="M18.8125 5.95329L8.53077 12.2858C7.94894 12.645 7.6736 13.3544 7.86105 14.0106L8.97277 17.9168C9.06774 18.2499 9.36412 18.4713 9.70514 18.4713C9.72413 18.4713 9.74332 18.4706 9.76256 18.4692C10.1271 18.4427 10.4156 18.1712 10.4641 17.8093L10.7531 15.6674C10.7921 15.3792 10.931 15.1111 11.1438 14.913L19.6284 7.02604C19.8848 6.7883 19.9187 6.39899 19.7074 6.12053C19.4958 5.84181 19.1113 5.76974 18.8125 5.95329ZM10.4654 14.1837C10.0841 14.5386 9.83575 15.0181 9.76603 15.5341L9.62584 16.573L8.81886 13.7375C8.75328 13.5078 8.84987 13.2594 9.05348 13.1337L16.5856 8.4947L10.4654 14.1837Z" fill="black"/>
<path d="M24.5933 1.82604C24.272 1.55377 23.8288 1.47882 23.4361 1.63048L0.736342 10.3874C0.286781 10.5608 -0.00228136 10.9841 1.35652e-05 11.4658C0.00235732 11.9479 0.295668 12.3689 0.747865 12.5383L6.05011 14.5172L8.11842 21.1689C8.232 21.5345 8.51867 21.8187 8.88517 21.9289C9.25148 22.0391 9.64708 21.9603 9.94279 21.7185L13.0258 19.2051C13.1738 19.0844 13.3853 19.0785 13.5399 19.1907L19.1005 23.2279C19.3006 23.3733 19.5367 23.4482 19.7755 23.4482C19.9154 23.4482 20.0562 23.4225 20.1914 23.3702C20.5569 23.2289 20.8227 22.9155 20.9023 22.5322L24.976 2.93702C25.0615 2.52443 24.9149 2.09874 24.5933 1.82604ZM24.0008 2.73463L19.9272 22.3298C19.9124 22.4006 19.8614 22.43 19.8323 22.4413C19.803 22.4526 19.7452 22.4651 19.686 22.4221L14.1251 18.3847C13.8765 18.2043 13.5842 18.1147 13.2925 18.1147C12.9742 18.1147 12.6564 18.2214 12.3966 18.433L9.31295 20.9469C9.25807 20.9918 9.20109 20.9838 9.17208 20.9751C9.14288 20.9663 9.09079 20.9414 9.06959 20.8732L6.92872 13.9881C6.88297 13.841 6.77164 13.7234 6.62731 13.6694L1.09679 11.6053C1.01398 11.5743 0.996351 11.5097 0.996107 11.4609C0.995863 11.4126 1.01286 11.3483 1.09489 11.3167L23.7947 2.55978C23.7948 2.55973 23.795 2.55968 23.7951 2.55963C23.8689 2.53117 23.9234 2.56388 23.9494 2.58585C23.9755 2.60807 24.017 2.6569 24.0008 2.73463Z" fill="black"/>
<path d="M20.8728 12.3118C20.604 12.2533 20.3388 12.4241 20.2805 12.6932L20.2048 13.0421C20.1464 13.3112 20.3171 13.5766 20.5859 13.635C20.6214 13.6428 20.6569 13.6465 20.692 13.6465C20.9212 13.6465 21.1275 13.487 21.1782 13.2537L21.2539 12.9047C21.3122 12.6357 21.1416 12.3702 20.8728 12.3118Z" fill="black"/>
<path d="M20.3762 14.6057C20.1071 14.5473 19.8421 14.7179 19.7838 14.9867L18.6384 20.2627C18.58 20.5315 18.7506 20.7966 19.0194 20.855C19.055 20.8627 19.0905 20.8664 19.1255 20.8664C19.3548 20.8664 19.5611 20.7071 19.6118 20.474L20.7572 15.198C20.8156 14.9292 20.645 14.664 20.3762 14.6057Z" fill="black"/>
</g>
<defs>
<clipPath id="clip0">
<rect width="25" height="25" fill="white"/>
</clipPath>
</defs>
</svg>
